HIERARCHY
ROOT Hips
{
    OFFSET 0.000000 0.000000 0.000000
    CHANNELS 6 Xposition Yposition Zposition Zrotation Xrotation Yrotation
    JOINT Spine
    {
        OFFSET 0.000005 7.889263 -0.000018
        CHANNELS 3 Zrotation Xrotation Yrotation
        JOINT Spine1
        {
            OFFSET -0.000003 20.943708 0.000015
            CHANNELS 3 Zrotation Xrotation Yrotation
            JOINT Neck
            {
                OFFSET -0.000000 22.222878 0.000006
                CHANNELS 3 Zrotation Xrotation Yrotation
                JOINT Head
                {
                    OFFSET 0.000000 14.209292 1.902201
                    CHANNELS 3 Zrotation Xrotation Yrotation
                    End Site
                    {
                        OFFSET 0.000000 19.022141 0.000000
                    }
                }
            }
            JOINT LeftShoulder
            {
                OFFSET 3.797838 16.121197 -0.677315
                CHANNELS 3 Zrotation Xrotation Yrotation
                JOINT LeftArm
                {
                    OFFSET 11.576588 0.000001 -0.000001
                    CHANNELS 3 Zrotation Xrotation Yrotation
                    JOINT LeftForeArm
                    {
                        OFFSET 29.906410 0.000015 -0.000016
                        CHANNELS 3 Zrotation Xrotation Yrotation
                        JOINT LeftHand
                        {
                            OFFSET 24.318321 -0.000008 -0.000001
                            CHANNELS 3 Zrotation Xrotation Yrotation
                            JOINT LeftHandThumb1
                            {
                                OFFSET 1.987815 -2.258879 3.162430
                                CHANNELS 3 Zrotation Xrotation Yrotation
                                JOINT LeftHandThumb2
                                {
                                    OFFSET 3.002314 -0.000008 0.000000
                                    CHANNELS 3 Zrotation Xrotation Yrotation
                                    JOINT LeftHandThumb3
                                    {
                                        OFFSET 2.566099 0.000003 0.000002
                                        CHANNELS 3 Zrotation Xrotation Yrotation
                                        End Site
                                        {
                                            OFFSET 2.440626 0.000000 0.000000
                                        }
                                    }
                                }
                            }
                            JOINT LeftHandIndex1
                            {
                                OFFSET 8.131962 -0.000002 3.162430
                                CHANNELS 3 Zrotation Xrotation Yrotation
                                JOINT LeftHandIndex2
                                {
                                    OFFSET 4.517782 0.000004 0.000004
                                    CHANNELS 3 Zrotation Xrotation Yrotation
                                    JOINT LeftHandIndex3
                                    {
                                        OFFSET 2.258868 -0.000002 -0.000006
                                        CHANNELS 3 Zrotation Xrotation Yrotation
                                        End Site
                                        {
                                            OFFSET 2.148437 0.000000 0.000000
                                        }
                                    }
                                }
                            }
                            JOINT LeftHandMiddle1
                            {
                                OFFSET 8.131986 -0.000003 1.048133
                                CHANNELS 3 Zrotation Xrotation Yrotation
                                JOINT LeftHandMiddle2
                                {
                                    OFFSET 4.969554 0.000002 0.000007
                                    CHANNELS 3 Zrotation Xrotation Yrotation
                                    JOINT LeftHandMiddle3
                                    {
                                        OFFSET 2.710641 -0.000003 -0.000003
                                        CHANNELS 3 Zrotation Xrotation Yrotation
                                        End Site
                                        {
                                            OFFSET 2.578118 0.000000 0.000000
                                        }
                                    }
                                }
                            }
                            JOINT LeftHandRing1
                            {
                                OFFSET 7.680179 -0.000003 -1.048122
                                CHANNELS 3 Zrotation Xrotation Yrotation
                                JOINT LeftHandRing2
                                {
                                    OFFSET 4.517781 0.000004 0.000004
                                    CHANNELS 3 Zrotation Xrotation Yrotation
                                    JOINT LeftHandRing3
                                    {
                                        OFFSET 2.258869 -0.000001 -0.000006
                                        CHANNELS 3 Zrotation Xrotation Yrotation
                                        End Site
                                        {
                                            OFFSET 2.148437 0.000000 0.000000
                                        }
                                    }
                                }
                            }
                            JOINT LeftHandPinky1
                            {
                                OFFSET 7.228428 -0.000001 -3.162421
                                CHANNELS 3 Zrotation Xrotation Yrotation
                                JOINT LeftHandPinky2
                                {
                                    OFFSET 3.614189 0.000000 -0.000007
                                    CHANNELS 3 Zrotation Xrotation Yrotation
                                    JOINT LeftHandPinky3
                                    {
                                        OFFSET 1.807095 -0.000001 -0.000004
                                        CHANNELS 3 Zrotation Xrotation Yrotation
                                        End Site
                                        {
                                            OFFSET 1.718745 0.000000 0.000000
                                        }
                                    }
                                }
                            }
                        }
                    }
                }
            }
            JOINT RightShoulder
            {
                OFFSET -3.797830 16.121197 -0.677299
                CHANNELS 3 Zrotation Xrotation Yrotation
                JOINT RightArm
                {
                    OFFSET -11.576583 -0.000001 -0.000013
                    CHANNELS 3 Zrotation Xrotation Yrotation
                    JOINT RightForeArm
                    {
                        OFFSET -29.906422 0.000009 0.000013
                        CHANNELS 3 Zrotation Xrotation Yrotation
                        JOINT RightHand
                        {
                            OFFSET -24.318344 0.000016 0.000009
                            CHANNELS 3 Zrotation Xrotation Yrotation
                            JOINT RightHandThumb1
                            {
                                OFFSET -1.987817 -2.258877 3.162438
                                CHANNELS 3 Zrotation Xrotation Yrotation
                                JOINT RightHandThumb2
                                {
                                    OFFSET -3.002301 -0.000006 0.000005
                                    CHANNELS 3 Zrotation Xrotation Yrotation
                                    JOINT RightHandThumb3
                                    {
                                        OFFSET -2.566068 0.000003 -0.000004
                                        CHANNELS 3 Zrotation Xrotation Yrotation
                                        End Site
                                        {
                                            OFFSET -2.440626 0.000000 0.000000
                                        }
                                    }
                                }
                            }
                            JOINT RightHandIndex1
                            {
                                OFFSET -8.131976 -0.000003 3.162441
                                CHANNELS 3 Zrotation Xrotation Yrotation
                                JOINT RightHandIndex2
                                {
                                    OFFSET -4.517741 0.000003 0.000000
                                    CHANNELS 3 Zrotation Xrotation Yrotation
                                    JOINT RightHandIndex3
                                    {
                                        OFFSET -2.258893 -0.000001 0.000007
                                        CHANNELS 3 Zrotation Xrotation Yrotation
                                        End Site
                                        {
                                            OFFSET -2.148437 0.000000 0.000000
                                        }
                                    }
                                }
                            }
                            JOINT RightHandMiddle1
                            {
                                OFFSET -8.131956 -0.000006 1.048121
                                CHANNELS 3 Zrotation Xrotation Yrotation
                                JOINT RightHandMiddle2
                                {
                                    OFFSET -4.969538 0.000001 0.000005
                                    CHANNELS 3 Zrotation Xrotation Yrotation
                                    JOINT RightHandMiddle3
                                    {
                                        OFFSET -2.710644 0.000002 0.000000
                                        CHANNELS 3 Zrotation Xrotation Yrotation
                                        End Site
                                        {
                                            OFFSET -2.578118 0.000000 0.000000
                                        }
                                    }
                                }
                            }
                            JOINT RightHandRing1
                            {
                                OFFSET -7.680204 -0.000001 -1.048112
                                CHANNELS 3 Zrotation Xrotation Yrotation
                                JOINT RightHandRing2
                                {
                                    OFFSET -4.517741 0.000004 0.000000
                                    CHANNELS 3 Zrotation Xrotation Yrotation
                                    JOINT RightHandRing3
                                    {
                                        OFFSET -2.258893 -0.000002 0.000006
                                        CHANNELS 3 Zrotation Xrotation Yrotation
                                        End Site
                                        {
                                            OFFSET -2.148437 0.000000 0.000000
                                        }
                                    }
                                }
                            }
                            JOINT RightHandPinky1
                            {
                                OFFSET -7.228434 -0.000004 -3.162422
                                CHANNELS 3 Zrotation Xrotation Yrotation
                                JOINT RightHandPinky2
                                {
                                    OFFSET -3.614192 0.000003 0.000000
                                    CHANNELS 3 Zrotation Xrotation Yrotation
                                    JOINT RightHandPinky3
                                    {
                                        OFFSET -1.807096 0.000001 0.000001
                                        CHANNELS 3 Zrotation Xrotation Yrotation
                                        End Site
                                        {
                                            OFFSET -1.718745 0.000000 0.000000
                                        }
                                    }
                                }
                            }
                        }
                    }
                }
            }
        }
    }
    JOINT LeftUpLeg
    {
        OFFSET 9.511073 -0.000001 0.000009
        CHANNELS 3 Zrotation Xrotation Yrotation
        JOINT LeftLeg
        {
            OFFSET 0.000004 -43.875637 0.000011
            CHANNELS 3 Zrotation Xrotation Yrotation
            JOINT LeftFoot
            {
                OFFSET 0.000007 -35.354156 -0.000013
                CHANNELS 3 Zrotation Xrotation Yrotation
                JOINT LeftToeBase
                {
                    OFFSET 0.000004 -6.182193 14.266595
                    CHANNELS 3 Zrotation Xrotation Yrotation
                    End Site
                    {
                        OFFSET 0.000000 0.000000 3.804428
                    }
                }
            }
        }
    }
    JOINT RightUpLeg
    {
        OFFSET -9.511072 0.000001 -0.000009
        CHANNELS 3 Zrotation Xrotation Yrotation
        JOINT RightLeg
        {
            OFFSET -0.000004 -43.875633 0.000007
            CHANNELS 3 Zrotation Xrotation Yrotation
            JOINT RightFoot
            {
                OFFSET -0.000006 -35.354145 0.000010
                CHANNELS 3 Zrotation Xrotation Yrotation
                JOINT RightToeBase
                {
                    OFFSET -0.000004 -6.182193 14.266592
                    CHANNELS 3 Zrotation Xrotation Yrotation
                    End Site
                    {
                        OFFSET 0.000000 0.000000 3.804428
                    }
                }
            }
        }
    }
}
MOTION
Frames:    4
Frame Time:    0.002778
9.274912    89.776772    601.083069    0.595914    -9.355463    -175.951447    -0.162618    7.567246    -5.661088    -0.813089    7.566525    -5.575430    6.816220    13.495728    -13.898220    6.816219    13.495727    -13.898216    5.788060    -1.270570    1.851243    -57.837345    7.880299    -18.998367    -51.273636    1.492797    -75.135017    32.168701    1.964967    4.061359    47.448208    38.866421    -34.355026    -35.000011    -0.000005    0.000004    -0.000000    0.000000    -0.000000    0.000003    9.999990    0.000005    -0.000000    0.000000    -0.000000    -0.000000    0.000000    -0.000000    -0.000000    0.000000    -0.000000    -0.000000    0.000000    -0.000000    -0.000000    0.000000    -0.000000    -0.000000    0.000000    -0.000000    -0.000000    0.000000    -0.000000    -0.000000    0.000000    -0.000000    -0.000003    -10.000005    -0.000000    -0.000000    0.000000    -0.000000    -0.000000    0.000000    -0.000000    -7.132878    5.000180    -1.198331    74.689224    11.611986    -3.445484    23.661270    7.105160    39.899426    -42.493206    12.671685    -13.618953    -47.448208    38.866428    34.355030    34.999996    -0.000003    0.000003    -0.000000    0.000000    -0.000000    -0.000003    9.999996    -0.000000    -0.000000    0.000000    -0.000000    -0.000000    0.000000    -0.000000    -0.000000    0.000000    -0.000000    -0.000000    0.000000    -0.000000    -0.000000    0.000000    -0.000000    -0.000000    0.000000    -0.000000    -0.000000    0.000000    -0.000000    -0.000000    0.000000    -0.000000    0.000000    -10.000000    0.000001    -0.000000    0.000000    -0.000000    -0.000000    0.000000    -0.000000    15.972604    -23.591551    1.715094    -0.000002    41.180779    0.000001    -12.369293    -19.383251    8.359037    0.000000    -1.688110    0.000001    -11.783072    -32.680187    -2.866153    0.000000    46.401329    -0.000001    9.276128    -16.107866    -6.331235    0.000000    -2.496462    0.000000    
9.174395    89.760025    601.076050    0.574546    -9.350473    -176.267090    -0.153968    7.563711    -5.752725    -0.769841    7.563063    -5.671662    6.788062    13.613501    -13.883842    6.788059    13.613502    -13.883835    5.793005    -1.251485    1.869219    -57.894432    7.887975    -18.932598    -51.304619    1.558925    -75.191605    32.128445    1.955630    4.053097    47.448204    38.866432    -34.355030    -34.999992    -0.000003    0.000009    -0.000000    0.000000    -0.000000    0.000003    9.999997    0.000003    -0.000000    0.000000    -0.000000    -0.000000    0.000000    -0.000000    -0.000000    0.000000    -0.000000    -0.000000    0.000000    -0.000000    -0.000000    0.000000    -0.000000    -0.000000    0.000000    -0.000000    -0.000000    0.000000    -0.000000    -0.000000    0.000000    -0.000000    -0.000003    -9.999999    0.000007    -0.000000    0.000000    -0.000000    -0.000000    0.000000    -0.000000    -7.040851    5.064871    -1.252514    74.745552    11.719580    -3.482399    23.592070    6.519950    39.182758    -42.581825    12.785611    -13.693979    -47.448219    38.866440    34.355038    35.000000    -0.000002    0.000006    -0.000000    0.000000    -0.000000    0.000003    9.999998    -0.000000    -0.000000    0.000000    -0.000000    -0.000000    0.000000    -0.000000    -0.000000    0.000000    -0.000000    -0.000000    0.000000    -0.000000    -0.000000    0.000000    -0.000000    -0.000000    0.000000    -0.000000    -0.000000    0.000000    -0.000000    -0.000000    0.000000    -0.000000    0.000003    -9.999996    -0.000000    -0.000000    0.000000    -0.000000    -0.000000    0.000000    -0.000000    15.939508    -23.467693    1.809104    0.000000    41.257633    -0.000001    -12.315187    -19.625238    8.535609    0.000000    -1.697304    0.000000    -11.782780    -32.717514    -2.818847    0.000002    46.321945    -0.000001    9.232537    -16.058533    -6.122112    -0.000000    -2.476518    -0.000000    
9.059938    89.745865    601.056213    0.494525    -9.313565    -176.753189    -0.168432    7.553519    -5.855330    -0.842158    7.552751    -5.766771    6.738364    13.819909    -13.756018    6.738362    13.819908    -13.756013    5.773052    -1.227567    1.970593    -57.913872    7.861100    -18.749393    -51.366516    1.618130    -75.249809    31.998489    1.942337    4.052253    47.448212    38.866428    -34.355038    -35.000004    0.000001    0.000010    -0.000000    0.000000    -0.000000    0.000001    10.000005    -0.000007    -0.000000    0.000000    -0.000000    -0.000000    0.000000    -0.000000    -0.000000    0.000000    -0.000000    -0.000000    0.000000    -0.000000    -0.000000    0.000000    -0.000000    -0.000000    0.000000    -0.000000    -0.000000    0.000000    -0.000000    -0.000000    0.000000    -0.000000    0.000004    -9.999996    0.000002    -0.000000    0.000000    -0.000000    -0.000000    0.000000    -0.000000    -7.115232    4.965200    -1.183311    75.155632    12.174141    -3.519962    23.312237    5.423118    38.215797    -42.922443    12.729996    -13.486401    -47.448219    38.866432    34.355030    35.000008    -0.000005    0.000007    -0.000000    0.000000    -0.000000    -0.000007    9.999999    -0.000000    -0.000000    0.000000    -0.000000    -0.000000    0.000000    -0.000000    -0.000000    0.000000    -0.000000    -0.000000    0.000000    -0.000000    -0.000000    0.000000    -0.000000    -0.000000    0.000000    -0.000000    -0.000000    0.000000    -0.000000    -0.000000    0.000000    -0.000000    -0.000003    -9.999999    -0.000001    -0.000000    0.000000    -0.000000    -0.000000    0.000000    -0.000000    15.842129    -23.181900    1.882344    0.000000    41.232941    -0.000000    -12.360682    -19.974894    8.864807    -0.000000    -1.620843    -0.000000    -11.810204    -32.775589    -2.795339    -0.000001    46.260910    0.000001    9.028341    -15.940617    -5.760537    0.000000    -2.453109    0.000000    
8.961172    89.726280    601.052612    0.477977    -9.306850    -177.045700    -0.156970    7.556752    -5.947748    -0.784848    7.556087    -5.865181    6.699681    13.918837    -13.745328    6.699683    13.918828    -13.745330    5.779751    -1.212656    1.976019    -57.960220    7.879028    -18.690096    -51.441643    1.708265    -75.313843    31.978659    1.946538    4.063313    47.448189    38.866432    -34.355034    -34.999973    0.000003    0.000013    -0.000000    0.000000    -0.000000    -0.000031    10.000013    0.000003    -0.000000    0.000000    -0.000000    -0.000000    0.000000    -0.000000    -0.000000    0.000000    -0.000000    -0.000000    0.000000    -0.000000    -0.000000    0.000000    -0.000000    -0.000000    0.000000    -0.000000    -0.000000    0.000000    -0.000000    -0.000000    0.000000    -0.000000    -0.000007    -10.000007    0.000003    -0.000000    0.000000    -0.000000    -0.000000    0.000000    -0.000000    -7.056736    5.048499    -1.293080    75.191925    12.143490    -3.575505    23.324453    4.807153    37.594936    -42.964573    12.747891    -13.488363    -47.448215    38.866428    34.355038    35.000008    0.000002    -0.000004    -0.000000    0.000000    -0.000000    -0.000000    9.999997    0.000000    -0.000000    0.000000    -0.000000    -0.000000    0.000000    -0.000000    -0.000000    0.000000    -0.000000    -0.000000    0.000000    -0.000000    -0.000000    0.000000    -0.000000    -0.000000    0.000000    -0.000000    -0.000000    0.000000    -0.000000    -0.000000    0.000000    -0.000000    -0.000003    -10.000004    0.000001    -0.000000    0.000000    -0.000000    -0.000000    0.000000    -0.000000    15.814410    -23.066212    1.978585    0.000001    41.302696    0.000002    -12.320698    -20.207266    9.010564    -0.000000    -1.635145    -0.000001    -11.803176    -32.809044    -2.741364    0.000001    46.187141    -0.000002    8.979533    -15.909440    -5.590608    -0.000000    -2.438153    -0.000000    
